<?xml version="1.0" encoding="UTF-8"?>
<!DOCTYPE svg PUBLIC "-//W3C//DTD SVG 1.1//EN" "http://www.w3.org/Graphics/SVG/1.1/DTD/svg11.dtd">
<svg version="1.1" xmlns="http://www.w3.org/2000/svg" xmlns:xlink="http://www.w3.org/1999/xlink" x="0" y="0" width="377" height="74" viewBox="0, 0, 377, 74">
  <g id="Layer_1">
    <path d="M362.982,29.114 C366.936,30.8 370.126,33.231 372.543,36.406 C374.96,39.59 376.179,43.133 376.179,47.061 C376.179,49.86 375.553,52.479 374.292,54.918 C373.041,57.349 371.335,59.493 369.151,61.34 C366.957,63.179 364.434,64.632 361.562,65.699 C358.689,66.749 355.594,67.287 352.276,67.287 L300.613,67.287 C297.911,67.287 295.345,66.847 292.929,65.968 C290.512,65.107 288.392,63.896 286.579,62.372 C284.777,60.829 283.357,59.044 282.329,56.99 C281.29,54.954 280.781,52.793 280.781,50.497 C280.781,48.487 281.174,46.595 281.969,44.801 C282.764,43.016 283.855,41.393 285.244,39.931 C286.632,38.478 288.265,37.24 290.141,36.236 C292.017,35.24 294.052,34.513 296.257,34.047 C295.133,32.872 294.275,31.589 293.66,30.181 C293.056,28.782 292.759,27.284 292.759,25.67 C292.759,23.786 293.172,22.028 293.999,20.396 C294.826,18.764 295.95,17.346 297.37,16.145 C298.79,14.943 300.465,13.983 302.394,13.283 C304.323,12.584 306.401,12.234 308.637,12.234 C312.453,12.234 315.771,13.265 318.58,15.328 C319.195,13.158 320.234,11.131 321.696,9.256 C323.17,7.382 324.919,5.758 326.933,4.377 C328.947,3.005 331.183,1.937 333.674,1.166 C336.165,0.386 338.825,0 341.666,0 C344.91,0 347.994,0.529 350.898,1.588 C353.813,2.655 356.347,4.09 358.488,5.902 C360.64,7.713 362.336,9.866 363.586,12.324 C364.837,14.781 365.462,17.382 365.462,20.136 C365.462,21.768 365.25,23.338 364.805,24.836 C364.371,26.334 363.756,27.769 362.982,29.114" fill="#2F2F2F"/>
    <g id="art-printrbot">
      <path d="M59.623,39.606 L59.623,45.054 L50.392,45.054 C48.946,45.054 47.719,45.559 46.71,46.568 C46.238,47.039 45.869,47.585 45.6,48.207 C45.331,48.83 45.197,49.494 45.197,50.2 L45.197,65.585 L39.446,65.585 L39.446,50.149 C39.446,48.704 39.723,47.342 40.279,46.063 C40.834,44.786 41.582,43.659 42.523,42.684 C43.498,41.709 44.624,40.952 45.903,40.414 C47.18,39.876 48.56,39.606 50.04,39.606 L59.623,39.606 z" fill="#2F2F2F"/>
      <path d="M63.659,29.165 L69.409,29.165 L69.409,34.815 L63.659,34.815 L63.659,29.165 z M69.409,39.556 L63.659,39.556 L63.659,65.585 L69.409,65.585 L69.409,39.556 z" fill="#2F2F2F"/>
      <path d="M103.558,65.585 L103.558,50.2 C103.558,48.754 103.054,47.526 102.045,46.517 C101.574,46.046 101.028,45.677 100.406,45.407 C99.783,45.138 99.119,45.004 98.413,45.004 L85.096,45.004 C84.39,45.004 83.725,45.139 83.104,45.407 C82.481,45.677 81.935,46.046 81.464,46.517 C80.455,47.526 79.951,48.754 79.951,50.2 L79.951,65.585 L74.2,65.585 L74.2,50.149 C74.2,48.67 74.469,47.299 75.007,46.038 C75.545,44.777 76.301,43.66 77.277,42.684 C78.253,41.709 79.371,40.943 80.632,40.388 C81.893,39.834 83.263,39.556 84.743,39.556 L98.766,39.556 C100.245,39.556 101.616,39.834 102.877,40.388 C104.138,40.943 105.256,41.709 106.232,42.684 C107.207,43.659 107.964,44.777 108.502,46.038 C109.039,47.299 109.309,48.67 109.309,50.149 L109.309,50.2 L109.309,65.585 L103.558,65.585 z" fill="#2F2F2F"/>
      <path d="M126.207,65.585 C124.726,65.585 123.357,65.316 122.096,64.778 C120.835,64.24 119.717,63.483 118.742,62.508 C117.766,61.533 117.001,60.414 116.446,59.153 C115.892,57.892 115.614,56.523 115.614,55.042 L115.614,45.054 L113.092,45.054 L113.092,39.606 L115.614,39.606 L115.614,32.04 L121.415,32.04 L121.415,39.606 L129.335,39.606 L129.335,43.894 L129.335,45.054 L121.415,45.054 L121.415,54.991 C121.415,56.403 121.885,57.581 122.827,58.522 C123.702,59.498 124.845,60.036 126.257,60.136 L130.343,60.136 L130.343,65.584 L126.207,65.584 z" fill="#2F2F2F"/>
      <path d="M154.303,39.606 L154.303,45.054 L145.072,45.054 C143.626,45.054 142.399,45.559 141.39,46.568 C140.919,47.039 140.549,47.585 140.28,48.207 C140.011,48.83 139.877,49.494 139.877,50.2 L139.877,65.585 L134.127,65.585 L134.127,50.149 C134.127,48.704 134.404,47.342 134.959,46.063 C135.513,44.786 136.261,43.659 137.204,42.684 C138.178,41.709 139.305,40.952 140.583,40.414 C141.861,39.876 143.24,39.606 144.72,39.606 L154.303,39.606 z" fill="#2F2F2F"/>
      <path d="M249.034,65.585 C247.553,65.585 246.184,65.316 244.923,64.778 C243.662,64.24 242.544,63.483 241.568,62.508 C240.593,61.533 239.828,60.414 239.273,59.153 C238.718,57.892 238.441,56.523 238.441,55.042 L238.441,45.054 L235.919,45.054 L235.919,39.606 L238.441,39.606 L238.441,32.04 L244.242,32.04 L244.242,39.606 L252.162,39.606 L252.162,43.894 L252.162,45.054 L244.242,45.054 L244.242,54.991 C244.242,56.403 244.713,57.581 245.654,58.522 C246.529,59.498 247.672,60.036 249.084,60.136 L253.17,60.136 L253.17,65.584 L249.034,65.584 z" fill="#2F2F2F"/>
      <path d="M34.352,46.063 C33.813,44.786 33.057,43.659 32.082,42.684 C31.106,41.709 29.98,40.952 28.702,40.414 C27.424,39.876 26.062,39.606 24.616,39.606 L10.593,39.606 C9.113,39.606 7.743,39.876 6.482,40.414 C5.221,40.952 4.102,41.709 3.127,42.684 C2.152,43.659 1.387,44.786 0.832,46.063 C0.278,47.342 -0,48.72 -0,50.2 L-0,73.403 L5.75,73.403 L5.75,70.724 L5.75,64.424 L5.75,54.991 L5.75,53.097 L5.75,50.25 C5.75,49.511 5.893,48.83 6.179,48.207 C6.464,47.585 6.843,47.039 7.314,46.568 C8.255,45.559 9.465,45.054 10.946,45.054 L24.212,45.054 C25.658,45.054 26.886,45.559 27.895,46.568 C28.904,47.577 29.408,48.805 29.408,50.25 L29.408,54.991 C29.408,56.471 28.904,57.682 27.895,58.623 C26.886,59.632 25.658,60.137 24.212,60.137 L10.95,60.137 L10.95,65.585 L24.616,65.585 C26.062,65.585 27.424,65.316 28.702,64.778 C29.98,64.24 31.106,63.483 32.082,62.508 C33.056,61.533 33.813,60.414 34.352,59.153 C34.889,57.892 35.159,56.523 35.159,55.042 L35.159,50.2 C35.158,48.72 34.889,47.342 34.352,46.063 z" fill="#2F2F2F"/>
      <path d="M192.68,59.254 C192.142,60.532 191.385,61.658 190.41,62.634 C189.434,63.609 188.308,64.366 187.03,64.904 C185.752,65.441 184.39,65.711 182.944,65.711 L168.921,65.711 C167.441,65.711 166.071,65.441 164.81,64.904 C163.549,64.366 162.431,63.609 161.456,62.634 C160.48,61.658 159.716,60.532 159.16,59.254 C158.606,57.975 158.328,56.598 158.328,55.118 L158.328,31.915 L164.079,31.915 L164.079,34.594 L164.079,40.893 L164.079,50.326 L164.079,52.221 L164.079,55.068 C164.079,55.806 164.222,56.488 164.507,57.111 C164.793,57.732 165.171,58.279 165.642,58.75 C166.583,59.759 167.794,60.263 169.274,60.263 L182.541,60.263 C183.986,60.263 185.214,59.759 186.223,58.75 C187.232,57.741 187.737,56.513 187.737,55.068 L187.737,50.326 C187.737,48.846 187.232,47.635 186.223,46.694 C185.214,45.685 183.986,45.181 182.541,45.181 L169.278,45.181 L169.278,39.732 L182.944,39.732 C184.39,39.732 185.751,40.001 187.03,40.54 C188.308,41.077 189.434,41.834 190.41,42.81 C191.385,43.785 192.141,44.903 192.68,46.164 C193.217,47.425 193.487,48.795 193.487,50.275 L193.487,55.118 C193.487,56.598 193.218,57.975 192.68,59.254 z" fill="#2F2F2F"/>
      <path d="M231.581,46.063 C231.042,44.786 230.286,43.659 229.311,42.684 C228.335,41.709 227.209,40.952 225.931,40.414 C224.653,39.876 223.274,39.606 221.795,39.606 L207.822,39.606 C206.342,39.606 204.964,39.876 203.686,40.414 C202.407,40.952 201.298,41.709 200.357,42.684 C199.381,43.659 198.616,44.786 198.061,46.063 C197.533,47.283 197.259,48.594 197.234,49.996 L202.991,49.996 C203.019,49.355 203.145,48.757 203.383,48.207 C203.652,47.585 204.022,47.039 204.493,46.568 C205.502,45.559 206.729,45.054 208.176,45.054 L221.443,45.054 C222.888,45.054 224.116,45.559 225.125,46.568 C225.595,47.039 225.965,47.585 226.234,48.207 C226.503,48.83 226.637,49.511 226.637,50.25 L226.637,54.991 C226.637,55.698 226.503,56.362 226.234,56.984 C225.965,57.607 225.595,58.153 225.125,58.623 C224.115,59.632 222.888,60.137 221.443,60.137 L208.176,60.137 C206.729,60.137 205.502,59.632 204.493,58.623 C204.022,58.153 203.652,57.607 203.383,56.984 C203.14,56.422 203.013,55.825 202.99,55.195 L197.233,55.195 C197.251,56.616 197.526,57.936 198.061,59.153 C198.616,60.414 199.381,61.532 200.357,62.508 C201.298,63.483 202.407,64.24 203.686,64.778 C204.964,65.316 206.342,65.585 207.822,65.585 L221.795,65.585 C223.274,65.585 224.653,65.316 225.931,64.778 C227.209,64.24 228.335,63.483 229.311,62.508 C230.286,61.533 231.042,60.414 231.581,59.153 C232.118,57.892 232.388,56.523 232.388,55.042 L232.388,50.2 C232.388,48.72 232.119,47.342 231.581,46.063 z" fill="#2F2F2F"/>
    </g>
    <path d="M269.772,67.287 C267.746,67.287 266.103,65.644 266.103,63.617 C266.103,61.59 267.746,59.948 269.772,59.948 C271.799,59.948 273.442,61.59 273.442,63.617 C273.442,65.644 271.799,67.287 269.772,67.287 z" fill="#2F2F2F"/>
  </g>
</svg>
