<?xml version="1.0" encoding="UTF-8"?>
<!DOCTYPE svg PUBLIC "-//W3C//DTD SVG 1.1//EN" "http://www.w3.org/Graphics/SVG/1.1/DTD/svg11.dtd">
<svg version="1.1" xmlns="http://www.w3.org/2000/svg" xmlns:xlink="http://www.w3.org/1999/xlink" x="0" y="0" width="64" height="64" viewBox="0, 0, 64, 64">
  <g id="Layer_1">
    <path d="M58.904,32 C58.904,46.835 46.835,58.904 32,58.904 C17.165,58.904 5.096,46.835 5.096,32 C5.096,17.165 17.165,5.096 32,5.096 C41.413,5.096 50.058,9.984 54.939,17.948 L46.1,15.467 L45.535,17.487 L57.657,20.888 L60.168,8.553 L58.113,8.132 L56.434,16.388 C51.125,8.08 41.962,3 32,3 C16.009,3 3,16.009 3,32 C3,47.991 16.009,61 32,61 C47.991,61 61,47.991 61,32 L58.904,32 z" fill="#00760A"/>
    <path d="M-112.062,-69.238 z" fill="#00FF2D"/>
    <path d="M23.487,22.65 L30.537,33.4 L30.537,40.5 L33.462,40.5 L33.462,33.4 L40.512,22.65 L36.987,22.65 L32.012,30.675 L27.012,22.65 z" fill="#222222"/>
  </g>
</svg>
