<?xml version="1.0" encoding="UTF-8"?>
<!DOCTYPE svg PUBLIC "-//W3C//DTD SVG 1.1//EN" "http://www.w3.org/Graphics/SVG/1.1/DTD/svg11.dtd">
<svg version="1.1" xmlns="http://www.w3.org/2000/svg" xmlns:xlink="http://www.w3.org/1999/xlink" x="0" y="0" width="64" height="64" viewBox="0, 0, 64, 64">
  <g id="Layer_1" display="none">
    <path d="M58.904,32 C58.904,46.835 46.835,58.904 32,58.904 C17.165,58.904 5.096,46.835 5.096,32 C5.096,17.165 17.165,5.096 32,5.096 C41.413,5.096 50.058,9.984 54.939,17.948 L46.1,15.467 L45.535,17.487 L57.657,20.888 L60.168,8.553 L58.113,8.132 L56.434,16.388 C51.125,8.08 41.962,3 32,3 C16.009,3 3,16.009 3,32 C3,47.991 16.009,61 32,61 C47.991,61 61,47.991 61,32 L58.904,32 z" fill="#222222"/>
    <path d="M-138.562,-124.238 z" fill="#00FF2D"/>
    <path d="M-112.062,-69.238 z" fill="#00FF2D"/>
    <path d="M-32.096,-128 C-32.096,-113.165 -44.165,-101.096 -59,-101.096 C-73.835,-101.096 -85.904,-113.165 -85.904,-128 C-85.904,-142.835 -73.835,-154.904 -59,-154.904 C-49.587,-154.904 -40.942,-150.016 -36.061,-142.052 L-44.9,-144.533 L-45.465,-142.513 L-33.343,-139.112 L-30.832,-151.447 L-32.887,-151.868 L-34.566,-143.612 C-39.875,-151.92 -49.038,-157 -59,-157 C-74.991,-157 -88,-143.991 -88,-128 C-88,-112.009 -74.991,-99 -59,-99 C-43.009,-99 -30,-112.009 -30,-128 L-32.096,-128 z" fill="#000000"/>
    <path d="M-59.562,-124.238 z" fill="#00FF2D"/>
    <path d="M45.909,-128 C45.909,-113.165 33.84,-101.096 19.005,-101.096 C4.171,-101.096 -7.898,-113.165 -7.898,-128 C-7.898,-142.835 4.171,-154.904 19.005,-154.904 C28.419,-154.904 37.063,-150.016 41.944,-142.052 L33.106,-144.533 L32.54,-142.513 L44.662,-139.112 L47.174,-151.447 L45.118,-151.868 L43.439,-143.612 C38.131,-151.92 28.967,-157 19.005,-157 C3.015,-157 -9.995,-143.991 -9.995,-128 C-9.995,-112.009 3.015,-99 19.005,-99 C34.996,-99 48.005,-112.009 48.005,-128 L45.909,-128 z" fill="#000000"/>
    <path d="M18.443,-124.238 z" fill="#00FF2D"/>
    <text transform="matrix(1, 0, 0, 1, 21.005, -128)">
      <tspan x="-11.375" y="9" font-family="HiraKakuStd-W8" font-size="25" fill="#212121">Z</tspan>
    </text>
  </g>
  <g id="Layer_2">
    <path d="M30.263,42.839 L30.284,40.273 L45.059,40.31 C51.855,40.31 51.856,30.156 45.059,30.156 L15.476,30.094 L21.301,36.482 L18.053,36.502 L11.156,28.823 L17.953,21.161 L20.917,21.177 L15.445,27.544 L45.524,27.578 C55.248,27.578 55.318,42.837 45.524,42.837 z" fill="#222222"/>
  </g>
  <g id="Layer_3" display="none">
    <path d="M25.387,22.65 L25.387,25.15 L34.962,25.15 L24.637,38.2 L24.637,40.5 L39.362,40.5 L39.362,38 L28.462,38 L38.762,24.975 L38.762,22.65 z" fill="#212121"/>
  </g>
</svg>
