<?xml version="1.0" encoding="UTF-8"?>
<!DOCTYPE svg PUBLIC "-//W3C//DTD SVG 1.1//EN" "http://www.w3.org/Graphics/SVG/1.1/DTD/svg11.dtd">
<svg version="1.1" xmlns="http://www.w3.org/2000/svg" xmlns:xlink="http://www.w3.org/1999/xlink" x="0" y="0" width="50" height="50" viewBox="0, 0, 50, 50">
  <g id="Layer_1">
    <g>
      <g>
        <path d="M9.216,19.415 C8.49,19.415 7.901,18.826 7.901,18.1 C7.901,8.671 15.572,1 25.001,1 C29.906,1 34.579,3.11 37.826,6.789 C38.306,7.334 38.254,8.165 37.71,8.646 C37.167,9.126 36.335,9.075 35.853,8.531 C33.106,5.416 29.149,3.631 25.001,3.631 C17.023,3.631 10.531,10.122 10.531,18.1 C10.531,18.826 9.942,19.415 9.216,19.415 z" fill="#000000"/>
        <path d="M25.001,35.2 C20.097,35.2 15.423,33.09 12.176,29.412 C11.694,28.868 11.747,28.035 12.291,27.555 C12.836,27.074 13.667,27.127 14.147,27.671 C16.897,30.784 20.852,32.569 25.001,32.569 C32.978,32.569 39.47,26.078 39.47,18.1 C39.47,17.374 40.058,16.785 40.785,16.785 C41.513,16.785 42.101,17.374 42.101,18.1 C42.101,27.529 34.429,35.2 25.001,35.2 z" fill="#000000"/>
        <path d="M9.216,19.415 C8.874,19.415 8.537,19.283 8.285,19.03 L4.339,15.084 C3.824,14.57 3.824,13.738 4.339,13.224 C4.853,12.71 5.684,12.71 6.199,13.224 L9.474,16.499 L13.887,14.292 C14.538,13.967 15.327,14.23 15.652,14.88 C15.977,15.53 15.714,16.32 15.064,16.645 L9.803,19.276 C9.617,19.369 9.416,19.415 9.216,19.415 z" fill="#000000"/>
        <path d="M44.731,23.362 C44.395,23.362 44.058,23.233 43.801,22.976 L40.526,19.701 L36.113,21.908 C35.465,22.23 34.674,21.97 34.348,21.32 C34.023,20.67 34.286,19.88 34.936,19.555 L40.197,16.924 C40.704,16.673 41.314,16.77 41.715,17.171 L45.661,21.117 C46.176,21.632 46.176,22.463 45.661,22.977 C45.405,23.233 45.068,23.362 44.731,23.362 z" fill="#000000"/>
      </g>
      <path d="M31.813,13.065 L25.955,9.683 C25.659,9.512 25.33,9.427 25,9.427 C24.67,9.427 24.34,9.512 24.045,9.683 L18.187,13.065 C17.597,13.406 17.233,14.036 17.233,14.718 L17.233,21.483 C17.233,22.165 17.597,22.795 18.187,23.136 L24.045,26.518 C24.341,26.688 24.67,26.773 25,26.773 C25.33,26.773 25.659,26.688 25.955,26.518 L31.813,23.136 C32.403,22.795 32.767,22.165 32.767,21.482 L32.767,14.718 C32.767,14.036 32.403,13.406 31.813,13.065 z M25,11.336 L29.904,14.167 L25,16.998 L20.096,14.167 L25,11.336 z M19.142,21.483 L19.142,15.82 L24.045,18.651 L24.045,24.313 L19.142,21.483 z M25.955,24.313 L25.955,18.652 L30.858,15.821 L30.858,21.483 L25.955,24.313 z" fill="#000000"/>
    </g>
    <path d="M14.145,43.15 Q14.525,43.15 14.85,43.07 Q15.175,42.99 15.415,42.815 Q15.655,42.64 15.795,42.37 Q15.935,42.1 15.935,41.72 Q15.935,41.32 15.79,41.06 Q15.645,40.8 15.4,40.65 Q15.155,40.5 14.84,40.44 Q14.525,40.38 14.185,40.38 L12.025,40.38 L12.025,43.15 z M12.025,43.73 L12.025,47 L11.345,47 L11.345,39.8 L14.165,39.8 Q15.355,39.8 15.985,40.245 Q16.615,40.69 16.615,41.69 Q16.615,42.37 16.34,42.77 Q16.065,43.17 15.445,43.45 Q15.765,43.56 15.945,43.77 Q16.125,43.98 16.215,44.25 Q16.305,44.52 16.33,44.82 Q16.355,45.12 16.365,45.4 Q16.375,45.81 16.4,46.08 Q16.425,46.35 16.46,46.52 Q16.495,46.69 16.545,46.785 Q16.595,46.88 16.665,46.93 L16.665,47 L15.915,47 Q15.805,46.82 15.76,46.5 Q15.715,46.18 15.69,45.83 Q15.665,45.48 15.65,45.15 Q15.635,44.82 15.595,44.61 Q15.535,44.32 15.4,44.145 Q15.265,43.97 15.075,43.88 Q14.885,43.79 14.65,43.76 Q14.415,43.73 14.165,43.73 z" fill="#252525"/>
    <path d="M19.995,47.14 Q19.495,47.13 19.06,46.96 Q18.625,46.79 18.3,46.45 Q17.975,46.11 17.785,45.6 Q17.595,45.09 17.595,44.41 Q17.595,43.84 17.745,43.345 Q17.895,42.85 18.195,42.48 Q18.495,42.11 18.945,41.895 Q19.395,41.68 19.995,41.68 Q20.605,41.68 21.055,41.895 Q21.505,42.11 21.805,42.475 Q22.105,42.84 22.25,43.34 Q22.395,43.84 22.395,44.41 Q22.395,45.03 22.225,45.53 Q22.055,46.03 21.74,46.39 Q21.425,46.75 20.98,46.945 Q20.535,47.14 19.995,47.14 z M21.755,44.41 Q21.755,43.95 21.655,43.55 Q21.555,43.15 21.345,42.855 Q21.135,42.56 20.805,42.39 Q20.475,42.22 19.995,42.22 Q19.525,42.22 19.19,42.405 Q18.855,42.59 18.645,42.895 Q18.435,43.2 18.335,43.595 Q18.235,43.99 18.235,44.41 Q18.235,44.89 18.35,45.295 Q18.465,45.7 18.685,45.99 Q18.905,46.28 19.235,46.44 Q19.565,46.6 19.995,46.6 Q20.465,46.6 20.8,46.415 Q21.135,46.23 21.345,45.92 Q21.555,45.61 21.655,45.22 Q21.755,44.83 21.755,44.41 z" fill="#252525"/>
    <path d="M25.315,47.02 Q25.205,47.04 25.025,47.09 Q24.845,47.14 24.625,47.14 Q24.175,47.14 23.94,46.915 Q23.705,46.69 23.705,46.11 L23.705,42.32 L22.975,42.32 L22.975,41.82 L23.705,41.82 L23.705,40.38 L24.305,40.38 L24.305,41.82 L25.275,41.82 L25.275,42.32 L24.305,42.32 L24.305,45.87 Q24.305,46.06 24.315,46.2 Q24.325,46.34 24.375,46.43 Q24.425,46.52 24.53,46.56 Q24.635,46.6 24.825,46.6 Q24.945,46.6 25.07,46.58 Q25.195,46.56 25.315,46.53 z" fill="#252525"/>
    <path d="M29.665,44.28 Q29.285,44.44 28.895,44.49 Q28.505,44.54 28.115,44.57 Q27.425,44.62 27.04,44.88 Q26.655,45.14 26.655,45.67 Q26.655,45.91 26.75,46.085 Q26.845,46.26 27,46.375 Q27.155,46.49 27.36,46.545 Q27.565,46.6 27.775,46.6 Q28.135,46.6 28.475,46.51 Q28.815,46.42 29.08,46.235 Q29.345,46.05 29.505,45.765 Q29.665,45.48 29.665,45.09 z M28.655,43.98 Q28.825,43.96 29.06,43.92 Q29.295,43.88 29.445,43.81 Q29.595,43.74 29.63,43.575 Q29.665,43.41 29.665,43.27 Q29.665,42.81 29.37,42.515 Q29.075,42.22 28.375,42.22 Q28.065,42.22 27.805,42.275 Q27.545,42.33 27.35,42.465 Q27.155,42.6 27.03,42.825 Q26.905,43.05 26.865,43.39 L26.255,43.39 Q26.285,42.93 26.465,42.605 Q26.645,42.28 26.93,42.075 Q27.215,41.87 27.59,41.775 Q27.965,41.68 28.385,41.68 Q28.775,41.68 29.12,41.765 Q29.465,41.85 29.72,42.035 Q29.975,42.22 30.12,42.53 Q30.265,42.84 30.265,43.29 L30.265,46.11 Q30.265,46.46 30.39,46.555 Q30.515,46.65 30.895,46.51 L30.895,46.98 Q30.825,47 30.69,47.04 Q30.555,47.08 30.425,47.08 Q30.285,47.08 30.155,47.05 Q30.005,47.03 29.915,46.955 Q29.825,46.88 29.77,46.775 Q29.715,46.67 29.695,46.545 Q29.675,46.42 29.675,46.28 Q29.295,46.7 28.805,46.92 Q28.315,47.14 27.745,47.14 Q27.405,47.14 27.09,47.05 Q26.775,46.96 26.535,46.77 Q26.295,46.58 26.155,46.305 Q26.015,46.03 26.015,45.65 Q26.015,44.33 27.825,44.09 z" fill="#252525"/>
    <path d="M33.655,47.02 Q33.545,47.04 33.365,47.09 Q33.185,47.14 32.965,47.14 Q32.515,47.14 32.28,46.915 Q32.045,46.69 32.045,46.11 L32.045,42.32 L31.315,42.32 L31.315,41.82 L32.045,41.82 L32.045,40.38 L32.645,40.38 L32.645,41.82 L33.615,41.82 L33.615,42.32 L32.645,42.32 L32.645,45.87 Q32.645,46.06 32.655,46.2 Q32.665,46.34 32.715,46.43 Q32.765,46.52 32.87,46.56 Q32.975,46.6 33.165,46.6 Q33.285,46.6 33.41,46.58 Q33.535,46.56 33.655,46.53 z" fill="#252525"/>
    <path d="M38.365,44.05 Q38.365,43.67 38.26,43.335 Q38.155,43 37.95,42.755 Q37.745,42.51 37.435,42.365 Q37.125,42.22 36.725,42.22 Q36.325,42.22 36.02,42.37 Q35.715,42.52 35.5,42.77 Q35.285,43.02 35.155,43.35 Q35.025,43.68 34.985,44.05 z M34.985,44.55 Q34.985,44.97 35.095,45.345 Q35.205,45.72 35.42,45.995 Q35.635,46.27 35.965,46.435 Q36.295,46.6 36.725,46.6 Q37.315,46.6 37.735,46.29 Q38.155,45.98 38.295,45.41 L38.965,45.41 Q38.855,45.78 38.675,46.095 Q38.495,46.41 38.225,46.645 Q37.955,46.88 37.585,47.01 Q37.215,47.14 36.725,47.14 Q36.105,47.14 35.655,46.93 Q35.205,46.72 34.915,46.355 Q34.625,45.99 34.485,45.495 Q34.345,45 34.345,44.43 Q34.345,43.86 34.51,43.36 Q34.675,42.86 34.98,42.485 Q35.285,42.11 35.725,41.895 Q36.165,41.68 36.725,41.68 Q37.795,41.68 38.405,42.415 Q39.015,43.15 39.005,44.55 z" fill="#252525"/>
  </g>
</svg>
