<?xml version="1.0" encoding="UTF-8"?>
<!DOCTYPE svg PUBLIC "-//W3C//DTD SVG 1.1//EN" "http://www.w3.org/Graphics/SVG/1.1/DTD/svg11.dtd">
<svg version="1.1" xmlns="http://www.w3.org/2000/svg" xmlns:xlink="http://www.w3.org/1999/xlink" x="0" y="0" width="64" height="64" viewBox="0, 0, 64, 64">
  <g id="Layer_1">
    <path d="M58.904,31.575 C58.904,46.41 46.835,58.479 32,58.479 C17.165,58.479 5.096,46.41 5.096,31.575 C5.096,16.74 17.165,4.671 32,4.671 C41.413,4.671 50.058,9.559 54.939,17.523 L46.1,15.042 L45.535,17.062 L57.657,20.463 L60.168,8.128 L58.113,7.707 L56.434,15.963 C51.125,7.655 41.962,2.575 32,2.575 C16.009,2.575 3,15.584 3,31.575 C3,47.566 16.009,60.575 32,60.575 C47.991,60.575 61,47.566 61,31.575 L58.904,31.575 z" fill="#0060FF"/>
    <path d="M-138.562,-124.238 z" fill="#00FF2D"/>
    <path d="M25.387,22.65 L25.387,25.15 L34.962,25.15 L24.637,38.2 L24.637,40.5 L39.362,40.5 L39.362,38 L28.462,38 L38.762,24.975 L38.762,22.65 z" fill="#212121"/>
  </g>
</svg>
