<?xml version="1.0" encoding="UTF-8"?>
<!DOCTYPE svg PUBLIC "-//W3C//DTD SVG 1.1//EN" "http://www.w3.org/Graphics/SVG/1.1/DTD/svg11.dtd">
<svg version="1.1" xmlns="http://www.w3.org/2000/svg" xmlns:xlink="http://www.w3.org/1999/xlink" x="0" y="0" width="64" height="64" viewBox="0, 0, 64, 64">
  <g id="Layer_1">
    <path d="M16.586,42.495 C8.72,40.16 3.833,36.139 3.833,31.999 C3.833,25.061 16.469,19.416 32,19.416 C32.89,19.416 33.807,19.444 34.734,19.486 L32.457,23.9 C32.266,24.268 32.411,24.72 32.779,24.91 C32.889,24.967 33.007,24.993 33.123,24.993 C33.395,24.993 33.657,24.845 33.791,24.587 L36.603,19.136 C36.604,19.134 36.604,19.131 36.604,19.129 C36.626,19.086 36.632,19.033 36.645,18.985 C36.65,18.967 36.657,18.95 36.66,18.932 C36.66,18.931 36.66,18.929 36.66,18.928 C36.667,18.898 36.682,18.872 36.685,18.84 C36.688,18.799 36.672,18.764 36.668,18.725 C36.666,18.702 36.665,18.678 36.66,18.654 C36.659,18.651 36.658,18.648 36.657,18.645 C36.646,18.594 36.636,18.545 36.616,18.498 C36.611,18.481 36.61,18.465 36.602,18.45 L33.79,12.998 C33.599,12.63 33.15,12.484 32.778,12.675 C32.41,12.865 32.265,13.317 32.456,13.685 L34.672,17.983 C33.768,17.944 32.87,17.918 32,17.918 C15.363,17.918 2.332,24.104 2.332,32.001 C2.332,36.904 7.501,41.365 16.157,43.935 C16.229,43.956 16.301,43.966 16.372,43.966 C16.694,43.966 16.993,43.755 17.09,43.43 C17.208,43.03 16.983,42.612 16.586,42.495 z M47.843,20.065 C47.444,19.945 47.028,20.173 46.91,20.57 C46.792,20.967 47.019,21.384 47.416,21.502 C55.28,23.837 60.167,27.859 60.167,31.999 C60.167,38.937 47.532,44.582 32,44.582 C31.105,44.582 30.188,44.554 29.265,44.513 L31.542,40.099 C31.733,39.731 31.587,39.279 31.219,39.088 C30.854,38.899 30.399,39.043 30.209,39.411 L27.397,44.862 C27.397,44.863 27.397,44.864 27.397,44.864 C27.382,44.894 27.381,44.93 27.369,44.962 C27.358,44.997 27.347,45.031 27.34,45.068 C27.34,45.071 27.34,45.074 27.338,45.077 C27.333,45.105 27.317,45.13 27.316,45.159 C27.315,45.19 27.326,45.218 27.329,45.248 C27.331,45.28 27.333,45.311 27.34,45.344 C27.34,45.349 27.343,45.353 27.344,45.358 C27.354,45.408 27.365,45.456 27.385,45.502 C27.389,45.519 27.39,45.535 27.399,45.551 L30.211,51.003 C30.344,51.261 30.607,51.409 30.878,51.409 C30.993,51.409 31.111,51.383 31.22,51.326 C31.588,51.136 31.733,50.683 31.544,50.315 L29.326,46.017 C30.229,46.056 31.125,46.082 32.001,46.082 C48.637,46.082 61.667,39.896 61.667,31.999 C61.667,27.096 56.499,22.634 47.843,20.065 z" fill="#000000"/>
  </g>
</svg>
