<?xml version="1.0" encoding="UTF-8"?>
<!DOCTYPE svg PUBLIC "-//W3C//DTD SVG 1.1//EN" "http://www.w3.org/Graphics/SVG/1.1/DTD/svg11.dtd">
<svg version="1.1" xmlns="http://www.w3.org/2000/svg" xmlns:xlink="http://www.w3.org/1999/xlink" x="0" y="0" width="64" height="64" viewBox="0, 0, 64, 64">
  <g id="Layer_1">
    <path d="M42.086,46.747 C39.751,54.612 35.73,59.499 31.59,59.499 C24.652,59.499 19.007,46.863 19.007,31.332 C19.007,30.441 19.035,29.524 19.077,28.599 L23.491,30.876 C23.859,31.065 24.311,30.921 24.501,30.553 C24.558,30.443 24.584,30.325 24.584,30.21 C24.584,29.938 24.436,29.676 24.178,29.542 L18.727,26.73 C18.725,26.729 18.722,26.729 18.72,26.728 C18.677,26.706 18.624,26.701 18.576,26.688 C18.558,26.683 18.541,26.676 18.523,26.672 C18.522,26.672 18.52,26.672 18.519,26.672 C18.489,26.666 18.463,26.65 18.431,26.648 C18.39,26.645 18.355,26.661 18.316,26.664 C18.293,26.667 18.269,26.668 18.245,26.673 C18.242,26.674 18.239,26.675 18.236,26.676 C18.185,26.687 18.136,26.697 18.089,26.717 C18.072,26.722 18.056,26.723 18.041,26.731 L12.589,29.543 C12.221,29.733 12.075,30.183 12.266,30.554 C12.456,30.922 12.908,31.067 13.276,30.877 L17.574,28.66 C17.535,29.564 17.509,30.461 17.509,31.333 C17.509,47.969 23.695,61 31.592,61 C36.495,61 40.956,55.832 43.526,47.175 C43.547,47.104 43.557,47.032 43.557,46.961 C43.557,46.638 43.346,46.34 43.021,46.243 C42.621,46.124 42.203,46.351 42.086,46.747 z M19.656,15.49 C19.536,15.89 19.764,16.305 20.161,16.423 C20.558,16.541 20.975,16.315 21.093,15.918 C23.428,8.052 27.45,3.166 31.59,3.166 C38.528,3.166 44.173,15.801 44.173,31.332 C44.173,32.227 44.145,33.144 44.104,34.066 L39.69,31.789 C39.322,31.6 38.87,31.744 38.679,32.112 C38.49,32.478 38.634,32.931 39.002,33.122 L44.453,35.934 C44.454,35.935 44.455,35.934 44.455,35.935 C44.485,35.95 44.521,35.952 44.553,35.962 C44.588,35.974 44.622,35.985 44.659,35.992 C44.662,35.993 44.665,35.993 44.668,35.993 C44.696,35.999 44.721,36.014 44.75,36.015 C44.781,36.017 44.809,36.005 44.839,36.003 C44.871,36 44.902,35.997 44.935,35.991 C44.94,35.99 44.944,35.988 44.949,35.987 C44.999,35.977 45.047,35.966 45.093,35.946 C45.11,35.942 45.126,35.94 45.142,35.932 L50.594,33.12 C50.852,32.987 51,32.724 51,32.453 C51,32.338 50.974,32.22 50.917,32.11 C50.727,31.742 50.274,31.597 49.906,31.787 L45.608,34.005 C45.647,33.103 45.673,32.206 45.673,31.33 C45.673,14.695 39.487,1.664 31.59,1.664 C26.687,1.666 22.225,6.834 19.656,15.49 z" fill="#000000"/>
  </g>
</svg>
